<svg width="168" height="24" viewBox="0 0 168 24" fill="none" xmlns="http://www.w3.org/2000/svg">
<path d="M4.94 7.4124L10.94 3.6624C11.5885 3.25706 12.4115 3.25706 13.06 3.6624L19.06 7.4124C19.6448 7.77788 20 8.41882 20 9.1084V14.8914C20 15.581 19.6448 16.2219 19.06 16.5874L13.06 20.3374C12.4115 20.7427 11.5885 20.7427 10.94 20.3374L4.94 16.5874C4.35524 16.2219 4 15.581 4 14.8914V9.1084C4 8.41882 4.35524 7.77788 4.94 7.4124Z" stroke="#6596A1" stroke-width="2" stroke-linecap="round"/>
<path d="M52.94 7.4124L58.94 3.6624C59.5885 3.25706 60.4115 3.25706 61.06 3.6624L67.06 7.4124C67.6448 7.77788 68 8.41882 68 9.1084V14.8914C68 15.581 67.6448 16.2219 67.06 16.5874L61.06 20.3374C60.4115 20.7427 59.5885 20.7427 58.94 20.3374L52.94 16.5874C52.3552 16.2219 52 15.581 52 14.8914V9.1084C52 8.41882 52.3552 7.77788 52.94 7.4124Z" stroke="#6596A1" stroke-width="2" stroke-linecap="round"/>
<path d="M100.94 7.4124L106.94 3.6624C107.589 3.25706 108.411 3.25706 109.06 3.6624L115.06 7.4124C115.645 7.77788 116 8.41882 116 9.1084V14.8914C116 15.581 115.645 16.2219 115.06 16.5874L109.06 20.3374C108.411 20.7427 107.589 20.7427 106.94 20.3374L100.94 16.5874C100.355 16.2219 100 15.581 100 14.8914V9.1084C100 8.41882 100.355 7.77788 100.94 7.4124Z" stroke="#6596A1" stroke-width="2" stroke-linecap="round"/>
<path d="M148.94 7.4124L154.94 3.6624C155.589 3.25706 156.411 3.25706 157.06 3.6624L163.06 7.4124C163.645 7.77788 164 8.41882 164 9.1084V14.8914C164 15.581 163.645 16.2219 163.06 16.5874L157.06 20.3374C156.411 20.7427 155.589 20.7427 154.94 20.3374L148.94 16.5874C148.355 16.2219 148 15.581 148 14.8914V9.1084C148 8.41882 148.355 7.77788 148.94 7.4124Z" stroke="#6596A1" stroke-width="2" stroke-linecap="round"/>
</svg>
